# xmcd CD database file
#
# Track frame offsets:
#	150
#	24207
#	51072
#	73760
#	107304
#
# Disc length: 1580 seconds
#
# Revision: 0
# Processed by: cddbd v1.5.2PL0 Copyright (c) Steve Scherf et al.
# Submitted via: CDex 1.51
#
DISCID=33062a05
DTITLE=Adrian Byron Burns - Live at The Bell and Crown
DYEAR=2007
DGENRE=Blues
TTITLE0=When You Dance (Neil Young)
TTITLE1=Blind Willie McTell (Bob Dylan)
TTITLE2=Born Under A Bad Sign (Robert Bell)
TTITLE3=Searching For A Heart (Warren Zevon)
TTITLE4=Video
EXTD=YEAR: 2007
EXTT0=
EXTT1=
EXTT2=
EXTT3=
EXTT4=
PLAYORDER=
